<svg width="800" height="800" viewBox="0 0 800 800" fill="none" xmlns="http://www.w3.org/2000/svg">
<path d="M750.65 378.475C748.6 378.325 746.225 378.225 743.825 378.225C731.725 378.225 720.15 380.475 709.5 384.575L710.15 384.35C707.025 385.6 702.025 385.6 701.6 389.575C703.325 391.225 703.575 393.95 705.025 396.25C707.95 401.2 711.55 405.4 715.75 408.9L715.825 408.975C720.2 412.4 724.575 415.725 729.175 418.65C737.3 423.65 746.525 426.625 754.475 431.65C759 434.575 763.625 438.3 768.225 441.425C770.5 442.975 771.975 445.8 774.9 446.8V446.175C773.475 444.3 773.025 441.575 771.625 439.5C769.525 437.4 767.45 435.525 765.375 433.475C759.175 425.35 752 418.4 743.95 412.6L743.65 412.4C736.975 407.85 722.35 401.475 719.6 393.8L719.2 393.35C724.65 392.575 729.5 391.425 734.175 389.875L733.575 390.05C740.675 388.175 747.175 388.575 754.5 386.75C757.8 385.9 761.15 384.875 764.5 383.825V381.95C760.75 378.2 757.95 373.1 754.075 369.6C743.85 360.6 732.575 352.15 720.7 344.55L719.575 343.875C713.025 339.7 704.7 337 697.8 333.45C695.3 332.2 691.125 331.575 689.675 329.475C686.425 324.85 683.55 319.55 681.275 313.95L681.075 313.4C674.942 301.5 669.242 289.392 663.975 277.075C660.375 267.5 656.8 259.65 652.775 252.05L653.35 253.225C633.7 220.25 606.325 193.75 573.65 175.675L572.575 175.125C564.85 171.3 555.875 168.325 546.45 166.65L545.825 166.55C540.6 166.3 535.4 165.925 530.2 165.7C526.55 163.35 523.4 160.95 520.45 158.3L520.525 158.375C508.65 150.875 477.925 134.625 469.175 156.125C463.55 169.675 477.525 183.05 482.35 189.925C486.2 194.5 489.7 199.625 492.725 205.05L492.975 205.55C494.45 209.175 494.85 212.9 496.325 216.675C499.95 227.975 503.625 237.25 507.8 246.225L507.15 244.675C509.625 249.65 512.2 253.875 515.075 257.875L514.875 257.575C516.55 259.85 519.425 260.925 520.1 264.675C517.95 269.2 516.275 274.45 515.35 279.925L515.3 280.275C512.6 288.575 511.025 298.15 511.025 308.075C511.025 323.6 514.85 338.225 521.6 351.075L521.35 350.575C524.7 355.75 532.65 367.25 543.3 362.85C552.675 359.1 550.6 347.225 553.3 336.775C553.925 334.275 553.525 332.625 554.8 330.925V331.4C557.725 337.275 560.675 342.875 563.35 348.75C570.9 359.625 579.875 368.875 590.125 376.5L590.45 376.725C595.45 380.475 599.425 386.975 605.675 389.275V388.65H605.2C603.775 387.1 602.2 385.725 600.475 384.55L600.375 384.5C596.5 380.7 592.9 376.6 589.65 372.275L589.45 372C581.3 361 573.55 348.55 566.825 335.475L566.1 333.95C562.675 327.4 559.8 320.325 557.05 313.85C555.8 311.35 555.8 307.6 553.7 306.35C550 310.5 546.675 315.125 543.9 320.1L543.7 320.5C540.5 329.825 538.4 340.6 537.85 351.775V352.05C537 352.275 537.425 352.05 537 352.5C530.325 350.875 528.025 343.95 525.525 338.125C522.125 328.975 520.15 318.375 520.15 307.35C520.15 298.45 521.425 289.85 523.825 281.725L523.675 282.375C525.15 278 531.4 264.2 528.9 260C527.6 256.025 523.475 253.75 521.175 250.525C518.45 246.675 515.95 242.3 513.875 237.675L513.675 237.175C508.675 225.5 506.175 212.55 500.75 200.875C497.475 194.775 494.025 189.525 490.15 184.625L490.325 184.85C486.2 180.075 482.4 174.75 479.1 169.1L478.825 168.6C477.8 166.325 476.325 162.55 477.975 160.05C478.275 158.6 479.425 157.475 480.9 157.25C483.65 155 491.4 157.925 494.1 159.175C502.025 162.175 508.85 165.7 515.175 169.85L514.775 169.6C517.7 171.65 520.875 175.625 524.625 176.65H529C535.675 178.125 543.225 177.1 549.475 178.925C560.95 182.8 570.875 187.65 580.05 193.6L579.525 193.275C607.125 211.1 629.225 235.2 644.175 263.675L644.675 264.7C647.175 269.5 648.275 273.925 650.55 278.925C654.925 289.225 660.325 299.65 664.775 309.6C669 320.3 674 329.55 679.95 338.075L679.65 337.625C682.775 342 695.325 344.275 700.95 346.55C706.875 348.625 711.625 350.6 716.225 352.825L715.3 352.425C722.475 356.8 729.475 361.8 736.225 366.6C739.65 368.975 750.075 374.2 750.7 378.4L750.65 378.475ZM457.55 561.3C457.55 561.675 457.575 562.1 457.575 562.525C457.575 576.475 451.35 588.95 441.5 597.35L441.425 597.4C430.625 606.2 416.7 611.55 401.525 611.55C400.35 611.55 399.175 611.525 398.025 611.45H398.175C379.7 611.2 362.7 605.2 348.775 595.175L349.025 595.35L356.425 580.475C367.15 586.475 379.9 590.2 393.45 590.725H393.6C394.275 590.775 395.05 590.8 395.85 590.8C404.15 590.8 411.875 588.2 418.2 583.775L418.075 583.85C423.8 579.5 427.45 572.7 427.45 565.05C427.45 564.9 427.45 564.775 427.45 564.625V564.65C427.45 554.35 420.275 545.6 407.2 538.25C395.075 531.6 370.875 517.725 370.875 517.725C358.925 510.325 351.1 497.3 351.1 482.45C351.1 481.925 351.1 481.4 351.125 480.875V480.95C351.1 480.475 351.1 479.925 351.1 479.375C351.1 466.5 356.775 454.95 365.75 447.1L365.8 447.05C375.35 438.95 387.825 434.025 401.45 434.025C402.325 434.025 403.175 434.05 404.025 434.075H403.9C404.125 434.075 404.4 434.075 404.675 434.075C420.65 434.075 435.525 438.85 447.925 447.075L447.625 446.9L440.975 461.775C431.2 457.375 419.8 454.725 407.8 454.6H407.75C407.15 454.55 406.475 454.525 405.775 454.525C398.775 454.525 392.325 456.975 387.275 461.075L387.325 461.025C382.6 464.95 379.6 470.825 379.575 477.4C379.575 487.65 386.875 496.45 400.375 503.95C412.65 510.675 437.45 524.875 437.45 524.875C449.65 532.05 457.725 545.1 457.725 560.05C457.725 560.5 457.725 560.975 457.7 561.425V561.35L457.55 561.3ZM509.35 574.575C502.525 560.95 498.55 544.9 498.55 527.925C498.55 525.25 498.65 522.6 498.85 520L498.825 520.35C498.825 476.833 512.05 455.067 538.5 455.05C539.15 455 539.925 454.975 540.725 454.975C552.6 454.975 563.025 461.175 568.95 470.525L569.025 470.65C575.8 484.2 579.775 500.2 579.775 517.1C579.775 519.7 579.675 522.275 579.5 524.825L579.525 524.475C579.525 568.342 566.3 590.292 539.85 590.325C539.175 590.375 538.4 590.4 537.625 590.4C525.75 590.4 515.3 584.2 509.375 574.85L509.3 574.725L509.35 574.575ZM612.2 613.375L580.45 597.75C583.35 595.325 585.95 592.775 588.35 590.025L588.425 589.95C601.25 572.65 608.95 550.875 608.95 527.325C608.95 524.6 608.85 521.9 608.65 519.225L608.675 519.575C608.675 462.408 586.233 433.808 541.35 433.775C540.35 433.725 539.175 433.7 538 433.7C518.825 433.7 501.6 442.125 489.875 455.5L489.825 455.575C477.05 472.875 469.375 494.625 469.375 518.175C469.375 520.825 469.475 523.45 469.675 526.05L469.65 525.7C469.425 528.225 469.3 531.175 469.3 534.15C469.3 556 476.15 576.25 487.8 592.875L487.575 592.55C498.8 604.5 514.725 611.95 532.35 611.95C534 611.95 535.625 611.875 537.225 611.75L537 611.775C537.225 611.775 537.525 611.775 537.8 611.775C545.575 611.775 553.1 610.65 560.225 608.575L559.675 608.725L601.075 632.85L612.325 613.425L612.2 613.375ZM715.9 609.15H633.725V436.4H661.375V587.925H715.9V609.15ZM330.875 481.7C323.7 533.8 307.275 580.825 283.25 622.95L284.25 621.025C274.625 639.55 256.425 652.45 235.05 654.525L234.8 654.55C228.325 654.2 222.3 652.65 216.825 650.125L217.125 650.25V634.825C220.55 635.35 224.5 635.65 228.525 635.65C228.75 635.65 228.975 635.65 229.225 635.65C229.625 635.675 230.05 635.675 230.5 635.675C237.725 635.675 244.35 633.05 249.45 628.675L249.4 628.7C254.9 624.175 258.425 617.425 258.625 609.825C257.3 598.875 254.775 588.875 251.15 579.45L251.45 580.3L219.775 481.7H248.2L270.925 555.425C274.975 565.825 277.325 577.875 277.325 590.45C277.325 590.475 277.325 590.5 277.325 590.5C289.375 558.95 298.525 522.15 303.175 483.975L303.4 481.675L330.875 481.7ZM205.375 609.15H176.425C175.608 563.133 172.8 517.208 168 471.375H167.75L123.7 609.15H101.675L57.925 471.375H57.625C54.2083 517.225 52.175 563.15 51.525 609.15H25.125C26.8417 547.733 31.1083 490.142 37.925 436.375H73.85L115.55 563.35H115.8L157.875 436.375H192.075C199.642 499.325 204.1 556.917 205.45 609.15H205.375ZM537.625 196.975C537.575 196.975 537.5 196.975 537.425 196.975C534.45 196.975 531.575 197.35 528.825 198.05L529.075 198V198.4H529.5C531.65 201.6 533.85 204.375 536.225 206.975L536.175 206.925C537.85 210.275 539.3 213.6 540.975 216.925L541.4 216.45C544.125 214.3 545.85 211 545.85 207.3C545.85 206.85 545.825 206.425 545.775 205.975V206.025C544.525 204.55 544.35 203.1 543.275 201.65C542.025 199.55 539.35 198.525 537.65 196.875L537.625 196.975Z" fill="#333333"/>
</svg>
