<svg width="800" height="800" viewBox="0 0 800 800" fill="none" xmlns="http://www.w3.org/2000/svg">
<path d="M399.15 418.5C396.5 422.15 394.25 425.15 392.1 428.2L288.75 575C256.75 620.5 224.65 666 192.55 711.5C192.008 712.227 191.317 712.83 190.524 713.269C189.731 713.709 188.854 713.975 187.95 714.05C142.65 713.7 97.3 713.2 52 712.65C51.5 712.65 51 712.5 50 712.35C50.3593 711.441 50.7768 710.556 51.25 709.7C141.969 573.902 232.736 438.135 323.55 302.4C328.15 295.5 332.95 288.75 337.3 281.75C338.404 279.882 338.727 277.655 338.2 275.55C329.85 249.8 321.3 224.05 312.8 198.4C309.15 187.4 305.3 176.4 301.9 165.4C300.8 161.8 298.95 160.7 295.2 160.75C266.7 160.85 238.4 160.8 210 160.8C204.6 160.8 204.6 160.8 204.6 155.65C204.6 121.95 204.6 88.3 204.5 54.6C204.5 50.85 205.8 50 209.45 50C266.6 50.1 323.75 50.1 380.95 50C382.277 49.8241 383.624 50.1254 384.75 50.85C385.847 51.5581 386.647 52.6429 387 53.9C452.289 212.418 517.622 370.918 583 529.4C593.9 555.9 604.9 582.35 615.7 608.9C617 612.1 618.35 612.7 621.7 611.7C651.7 602.8 681.7 594.1 711.7 585.15C715.45 584 716.8 584.75 718 588.35C728.2 619.35 738.6 650.3 749 681.25L750 684.9C747.85 685.65 745.85 686.5 743.8 687.05L539.55 749.55C536.3 750.55 535.3 749.55 534.25 746.85L471.75 594.45L410.45 445.25L401.3 422.8C400.8 421.5 400.15 420.45 399.15 418.5Z" fill="#333333"/>
</svg>
