<svg width="800" height="800" viewBox="0 0 800 800" fill="none" xmlns="http://www.w3.org/2000/svg">
<g clip-path="url(#clip0_0_1)">
<mask id="mask0_0_1" style="mask-type:luminance" maskUnits="userSpaceOnUse" x="0" y="0" width="800" height="800">
<path d="M400 0C621.091 0 800 178.909 800 400C800 621.091 621.091 800 400 800C178.909 800 0 621.091 0 400C0 178.909 178.909 0 400 0Z" fill="white"/>
</mask>
<g mask="url(#mask0_0_1)">
<g filter="url(#filter0_d_0_1)">
<path d="M400 9.375C615.909 9.375 790.625 184.091 790.625 400C790.625 615.909 615.909 790.625 400 790.625C184.091 790.625 9.375 615.909 9.375 400C9.375 184.091 184.091 9.375 400 9.375Z" fill="#333333"/>
</g>
<path d="M400 9.375C615.909 9.375 790.625 184.091 790.625 400C790.625 615.909 615.909 790.625 400 790.625C184.091 790.625 9.375 615.909 9.375 400C9.375 184.091 184.091 9.375 400 9.375Z" fill="white"/>
</g>
<mask id="mask1_0_1" style="mask-type:luminance" maskUnits="userSpaceOnUse" x="0" y="0" width="800" height="800">
<path d="M400 0C621.091 0 800 178.909 800 400C800 621.091 621.091 800 400 800C178.909 800 0 621.091 0 400C0 178.909 178.909 0 400 0Z" fill="white"/>
</mask>
<g mask="url(#mask1_0_1)">
<path d="M400 23.0812C608.333 23.0812 776.919 191.667 776.919 400C776.919 608.333 608.333 776.919 400 776.919C191.667 776.919 23.0811 608.333 23.0811 400C23.0811 191.667 191.667 23.0812 400 23.0812Z" fill="#333333"/>
</g>
<mask id="mask2_0_1" style="mask-type:luminance" maskUnits="userSpaceOnUse" x="0" y="0" width="800" height="800">
<path d="M400 0C621.091 0 800 178.909 800 400C800 621.091 621.091 800 400 800C178.909 800 0 621.091 0 400C0 178.909 178.909 0 400 0Z" fill="white"/>
</mask>
<g mask="url(#mask2_0_1)">
<path d="M600.11 565.844C586.404 608.333 565.844 639.857 537.061 663.158C508.279 686.458 469.901 698.794 421.93 702.906L412.336 639.857C443.86 635.746 467.16 628.893 482.237 617.928C487.719 613.816 498.684 601.48 498.684 601.48L384.923 236.897H479.496L545.285 509.649L615.186 236.897H707.018L600.11 565.844ZM269.792 224.561C291.722 224.561 312.281 227.303 328.728 234.156C346.546 241.009 362.993 250.603 379.441 264.309L341.064 316.393C330.099 308.169 319.134 302.686 309.539 298.575C299.945 294.463 287.61 293.092 276.645 293.092C230.044 293.092 206.743 328.728 206.743 401.371C206.743 438.377 212.226 464.419 224.561 479.496C236.897 495.943 253.344 502.796 276.645 502.796C287.61 502.796 298.575 501.425 308.169 497.314C317.763 493.202 328.728 487.719 342.434 479.496L380.811 534.32C349.287 560.362 313.651 572.697 272.533 572.697C239.638 572.697 212.226 565.844 187.555 552.138C164.254 538.432 145.066 517.873 132.73 491.831C120.395 465.789 113.542 435.636 113.542 400C113.542 365.735 120.395 334.211 132.73 308.169C145.066 280.757 164.254 260.197 187.555 245.121C210.855 232.785 238.268 224.561 269.792 224.561Z" fill="white"/>
</g>
</g>
<defs>
<filter id="filter0_d_0_1" x="-3.125" y="-3.125" width="806.25" height="806.25" filterUnits="userSpaceOnUse" color-interpolation-filters="sRGB">
<feFlood flood-opacity="0" result="BackgroundImageFix"/>
<feColorMatrix in="SourceAlpha" type="matrix" values="0 0 0 0 0 0 0 0 0 0 0 0 0 0 0 0 0 0 127 0" result="hardAlpha"/>
<feOffset/>
<feGaussianBlur stdDeviation="6.25"/>
<feColorMatrix type="matrix" values="0 0 0 0 0 0 0 0 0 0 0 0 0 0 0 0 0 0 0.3 0"/>
<feBlend mode="normal" in2="BackgroundImageFix" result="effect1_dropShadow_0_1"/>
<feBlend mode="normal" in="SourceGraphic" in2="effect1_dropShadow_0_1" result="shape"/>
</filter>
<clipPath id="clip0_0_1">
<rect width="800" height="800" fill="white"/>
</clipPath>
</defs>
</svg>
