<svg width="800" height="800" viewBox="0 0 800 800" fill="none" xmlns="http://www.w3.org/2000/svg">
<path d="M425.1 336.8H372.325L358.05 318.475V174.65H438.475V318.475L425.1 336.8Z" fill="#333333"/>
<path d="M353.7 350.225L337.375 400.45L315.55 408.325L178.725 363.875L203.6 287.425L340.4 331.825L353.7 350.225Z" fill="#333333"/>
<path d="M344.3 420.925L387.025 451.95L387.75 475.1L303.25 591.525L238.175 544.275L322.775 427.85L344.3 420.925Z" fill="#333333"/>
<path d="M409.85 452.175L452.625 421.15L474.875 427.625L559.425 544L494.4 591.25L409.85 474.875V452.175Z" fill="#333333"/>
<path d="M460.625 401.275L444.3 351.025L457.325 331.825L594.1 287.425L618.975 363.875L482.15 408.325L460.625 401.275Z" fill="#333333"/>
<path d="M400 50C330.777 50 263.108 70.5271 205.55 108.986C147.993 147.444 103.133 202.107 76.6421 266.061C50.1515 330.015 43.2203 400.388 56.7251 468.282C70.23 536.175 103.564 598.539 152.513 647.487C201.461 696.436 263.825 729.77 331.718 743.275C399.612 756.78 469.985 749.848 533.939 723.358C597.893 696.867 652.556 652.007 691.014 594.45C729.473 536.892 750 469.223 750 400C750 307.174 713.125 218.15 647.487 152.513C581.85 86.8749 492.826 50 400 50ZM398.1 673.5C343.358 673.48 289.852 657.229 244.345 626.802C198.839 596.375 163.376 553.138 142.441 502.558C121.506 451.977 116.039 396.325 126.731 342.638C137.422 288.95 163.793 239.639 202.508 200.938C241.223 162.236 290.545 135.884 344.236 125.211C397.927 114.539 453.577 120.026 504.15 140.98C554.723 161.933 597.947 197.411 628.358 242.929C658.768 288.446 675 341.958 675 396.7C675 433.058 667.837 469.06 653.92 502.65C640.003 536.239 619.606 566.758 593.892 592.463C568.178 618.167 537.652 638.554 504.057 652.459C470.463 666.363 434.458 673.513 398.1 673.5Z" fill="#333333"/>
<path d="M408.4 506.2H386.475V615.3H408.4V506.2Z" fill="#333333"/>
<path d="M512.127 417.998L505.352 438.85L609.112 472.564L615.887 451.712L512.127 417.998Z" fill="#333333"/>
<path d="M523.288 204.151L459.161 292.415L476.898 305.302L541.026 217.038L523.288 204.151Z" fill="#333333"/>
<path d="M276.345 204.117L258.607 217.005L322.735 305.268L340.472 292.381L276.345 204.117Z" fill="#333333"/>
<path d="M284.763 418.022L181.002 451.735L187.777 472.587L291.538 438.873L284.763 418.022Z" fill="#333333"/>
</svg>
