<svg>
    <g id="MySQL">
        <path d="M750.65 378.475C748.6 378.325 746.225 378.225 743.825 378.225C731.725 378.225 720.15 380.475 709.5 384.575L710.15 384.35C707.025 385.6 702.025 385.6 701.6 389.575C703.325 391.225 703.575 393.95 705.025 396.25C707.95 401.2 711.55 405.4 715.75 408.9L715.825 408.975C720.2 412.4 724.575 415.725 729.175 418.65C737.3 423.65 746.525 426.625 754.475 431.65C759 434.575 763.625 438.3 768.225 441.425C770.5 442.975 771.975 445.8 774.9 446.8V446.175C773.475 444.3 773.025 441.575 771.625 439.5C769.525 437.4 767.45 435.525 765.375 433.475C759.175 425.35 752 418.4 743.95 412.6L743.65 412.4C736.975 407.85 722.35 401.475 719.6 393.8L719.2 393.35C724.65 392.575 729.5 391.425 734.175 389.875L733.575 390.05C740.675 388.175 747.175 388.575 754.5 386.75C757.8 385.9 761.15 384.875 764.5 383.825V381.95C760.75 378.2 757.95 373.1 754.075 369.6C743.85 360.6 732.575 352.15 720.7 344.55L719.575 343.875C713.025 339.7 704.7 337 697.8 333.45C695.3 332.2 691.125 331.575 689.675 329.475C686.425 324.85 683.55 319.55 681.275 313.95L681.075 313.4C674.942 301.5 669.242 289.392 663.975 277.075C660.375 267.5 656.8 259.65 652.775 252.05L653.35 253.225C633.7 220.25 606.325 193.75 573.65 175.675L572.575 175.125C564.85 171.3 555.875 168.325 546.45 166.65L545.825 166.55C540.6 166.3 535.4 165.925 530.2 165.7C526.55 163.35 523.4 160.95 520.45 158.3L520.525 158.375C508.65 150.875 477.925 134.625 469.175 156.125C463.55 169.675 477.525 183.05 482.35 189.925C486.2 194.5 489.7 199.625 492.725 205.05L492.975 205.55C494.45 209.175 494.85 212.9 496.325 216.675C499.95 227.975 503.625 237.25 507.8 246.225L507.15 244.675C509.625 249.65 512.2 253.875 515.075 257.875L514.875 257.575C516.55 259.85 519.425 260.925 520.1 264.675C517.95 269.2 516.275 274.45 515.35 279.925L515.3 280.275C512.6 288.575 511.025 298.15 511.025 308.075C511.025 323.6 514.85 338.225 521.6 351.075L521.35 350.575C524.7 355.75 532.65 367.25 543.3 362.85C552.675 359.1 550.6 347.225 553.3 336.775C553.925 334.275 553.525 332.625 554.8 330.925V331.4C557.725 337.275 560.675 342.875 563.35 348.75C570.9 359.625 579.875 368.875 590.125 376.5L590.45 376.725C595.45 380.475 599.425 386.975 605.675 389.275V388.65H605.2C603.775 387.1 602.2 385.725 600.475 384.55L600.375 384.5C596.5 380.7 592.9 376.6 589.65 372.275L589.45 372C581.3 361 573.55 348.55 566.825 335.475L566.1 333.95C562.675 327.4 559.8 320.325 557.05 313.85C555.8 311.35 555.8 307.6 553.7 306.35C550 310.5 546.675 315.125 543.9 320.1L543.7 320.5C540.5 329.825 538.4 340.6 537.85 351.775V352.05C537 352.275 537.425 352.05 537 352.5C530.325 350.875 528.025 343.95 525.525 338.125C522.125 328.975 520.15 318.375 520.15 307.35C520.15 298.45 521.425 289.85 523.825 281.725L523.675 282.375C525.15 278 531.4 264.2 528.9 260C527.6 256.025 523.475 253.75 521.175 250.525C518.45 246.675 515.95 242.3 513.875 237.675L513.675 237.175C508.675 225.5 506.175 212.55 500.75 200.875C497.475 194.775 494.025 189.525 490.15 184.625L490.325 184.85C486.2 180.075 482.4 174.75 479.1 169.1L478.825 168.6C477.8 166.325 476.325 162.55 477.975 160.05C478.275 158.6 479.425 157.475 480.9 157.25C483.65 155 491.4 157.925 494.1 159.175C502.025 162.175 508.85 165.7 515.175 169.85L514.775 169.6C517.7 171.65 520.875 175.625 524.625 176.65H529C535.675 178.125 543.225 177.1 549.475 178.925C560.95 182.8 570.875 187.65 580.05 193.6L579.525 193.275C607.125 211.1 629.225 235.2 644.175 263.675L644.675 264.7C647.175 269.5 648.275 273.925 650.55 278.925C654.925 289.225 660.325 299.65 664.775 309.6C669 320.3 674 329.55 679.95 338.075L679.65 337.625C682.775 342 695.325 344.275 700.95 346.55C706.875 348.625 711.625 350.6 716.225 352.825L715.3 352.425C722.475 356.8 729.475 361.8 736.225 366.6C739.65 368.975 750.075 374.2 750.7 378.4L750.65 378.475ZM457.55 561.3C457.55 561.675 457.575 562.1 457.575 562.525C457.575 576.475 451.35 588.95 441.5 597.35L441.425 597.4C430.625 606.2 416.7 611.55 401.525 611.55C400.35 611.55 399.175 611.525 398.025 611.45H398.175C379.7 611.2 362.7 605.2 348.775 595.175L349.025 595.35L356.425 580.475C367.15 586.475 379.9 590.2 393.45 590.725H393.6C394.275 590.775 395.05 590.8 395.85 590.8C404.15 590.8 411.875 588.2 418.2 583.775L418.075 583.85C423.8 579.5 427.45 572.7 427.45 565.05C427.45 564.9 427.45 564.775 427.45 564.625V564.65C427.45 554.35 420.275 545.6 407.2 538.25C395.075 531.6 370.875 517.725 370.875 517.725C358.925 510.325 351.1 497.3 351.1 482.45C351.1 481.925 351.1 481.4 351.125 480.875V480.95C351.1 480.475 351.1 479.925 351.1 479.375C351.1 466.5 356.775 454.95 365.75 447.1L365.8 447.05C375.35 438.95 387.825 434.025 401.45 434.025C402.325 434.025 403.175 434.05 404.025 434.075H403.9C404.125 434.075 404.4 434.075 404.675 434.075C420.65 434.075 435.525 438.85 447.925 447.075L447.625 446.9L440.975 461.775C431.2 457.375 419.8 454.725 407.8 454.6H407.75C407.15 454.55 406.475 454.525 405.775 454.525C398.775 454.525 392.325 456.975 387.275 461.075L387.325 461.025C382.6 464.95 379.6 470.825 379.575 477.4C379.575 487.65 386.875 496.45 400.375 503.95C412.65 510.675 437.45 524.875 437.45 524.875C449.65 532.05 457.725 545.1 457.725 560.05C457.725 560.5 457.725 560.975 457.7 561.425V561.35L457.55 561.3ZM509.35 574.575C502.525 560.95 498.55 544.9 498.55 527.925C498.55 525.25 498.65 522.6 498.85 520L498.825 520.35C498.825 476.833 512.05 455.067 538.5 455.05C539.15 455 539.925 454.975 540.725 454.975C552.6 454.975 563.025 461.175 568.95 470.525L569.025 470.65C575.8 484.2 579.775 500.2 579.775 517.1C579.775 519.7 579.675 522.275 579.5 524.825L579.525 524.475C579.525 568.342 566.3 590.292 539.85 590.325C539.175 590.375 538.4 590.4 537.625 590.4C525.75 590.4 515.3 584.2 509.375 574.85L509.3 574.725L509.35 574.575ZM612.2 613.375L580.45 597.75C583.35 595.325 585.95 592.775 588.35 590.025L588.425 589.95C601.25 572.65 608.95 550.875 608.95 527.325C608.95 524.6 608.85 521.9 608.65 519.225L608.675 519.575C608.675 462.408 586.233 433.808 541.35 433.775C540.35 433.725 539.175 433.7 538 433.7C518.825 433.7 501.6 442.125 489.875 455.5L489.825 455.575C477.05 472.875 469.375 494.625 469.375 518.175C469.375 520.825 469.475 523.45 469.675 526.05L469.65 525.7C469.425 528.225 469.3 531.175 469.3 534.15C469.3 556 476.15 576.25 487.8 592.875L487.575 592.55C498.8 604.5 514.725 611.95 532.35 611.95C534 611.95 535.625 611.875 537.225 611.75L537 611.775C537.225 611.775 537.525 611.775 537.8 611.775C545.575 611.775 553.1 610.65 560.225 608.575L559.675 608.725L601.075 632.85L612.325 613.425L612.2 613.375ZM715.9 609.15H633.725V436.4H661.375V587.925H715.9V609.15ZM330.875 481.7C323.7 533.8 307.275 580.825 283.25 622.95L284.25 621.025C274.625 639.55 256.425 652.45 235.05 654.525L234.8 654.55C228.325 654.2 222.3 652.65 216.825 650.125L217.125 650.25V634.825C220.55 635.35 224.5 635.65 228.525 635.65C228.75 635.65 228.975 635.65 229.225 635.65C229.625 635.675 230.05 635.675 230.5 635.675C237.725 635.675 244.35 633.05 249.45 628.675L249.4 628.7C254.9 624.175 258.425 617.425 258.625 609.825C257.3 598.875 254.775 588.875 251.15 579.45L251.45 580.3L219.775 481.7H248.2L270.925 555.425C274.975 565.825 277.325 577.875 277.325 590.45C277.325 590.475 277.325 590.5 277.325 590.5C289.375 558.95 298.525 522.15 303.175 483.975L303.4 481.675L330.875 481.7ZM205.375 609.15H176.425C175.608 563.133 172.8 517.208 168 471.375H167.75L123.7 609.15H101.675L57.925 471.375H57.625C54.2083 517.225 52.175 563.15 51.525 609.15H25.125C26.8417 547.733 31.1083 490.142 37.925 436.375H73.85L115.55 563.35H115.8L157.875 436.375H192.075C199.642 499.325 204.1 556.917 205.45 609.15H205.375ZM537.625 196.975C537.575 196.975 537.5 196.975 537.425 196.975C534.45 196.975 531.575 197.35 528.825 198.05L529.075 198V198.4H529.5C531.65 201.6 533.85 204.375 536.225 206.975L536.175 206.925C537.85 210.275 539.3 213.6 540.975 216.925L541.4 216.45C544.125 214.3 545.85 211 545.85 207.3C545.85 206.85 545.825 206.425 545.775 205.975V206.025C544.525 204.55 544.35 203.1 543.275 201.65C542.025 199.55 539.35 198.525 537.65 196.875L537.625 196.975Z" fill="currentColor"/>
    </g>

    <g id="PostgreSQL">
    <path d="M570.975 0C539.85 0.275 509 4.7 479.05 13.4L476.975 14.075C458.2 10.8 439.075 9 420.075 8.6C380.75 7.925 347 17.425 319.8 33.325C292.975 24.1 237.375 7.925 178.775 11.2C138.05 13.4 93.5 25.775 60.4 60.675C27.6 95.45 10.175 149.35 13.8 222.8C14.825 242.975 20.575 275.9 30.2 318.725C39.7 361.45 53.125 411.45 69.925 457.15C86.725 502.725 105.05 543.725 133.725 571.575C148.025 585.5 167.825 597.375 191.125 596.35C207.425 595.675 222.125 588.525 234.9 577.975C241.125 586.175 247.8 589.675 253.775 592.95C261.475 597.125 268.75 599.975 276.45 601.825C290.25 605.325 313.825 609.9 341.425 605.2C350.8 603.625 360.7 600.525 370.6 596.225C371 607.15 371.4 617.95 371.775 628.9C373.2 663.4 374.15 695.3 384.4 723.3C386.1 727.875 390.675 751.3 408.625 772.125C426.725 792.95 461.85 805.85 502.1 797.25C530.375 791.25 566.425 780.325 590.4 746.225C614.1 712.625 624.775 664.325 626.875 585.925C627.375 581.625 628.05 578.125 628.675 574.725L634.275 575.25H634.95C665.15 576.55 697.975 572.25 725.45 559.475C749.65 548.275 768.025 536.95 781.425 516.775C784.7 511.8 788.45 505.7 789.4 495.275C790.425 485 784.425 468.7 774.525 461.175C754.75 446.075 742.25 451.8 728.825 454.675C715.7 457.55 702.25 459.075 688.85 459.475C727.375 394.65 754.975 325.65 770.75 264.675C780.125 228.6 785.35 195.4 785.725 166.375C786.25 137.35 783.8 111.7 766.45 89.45C712.025 20.05 635.575 0.75 576.475 0.125C574.65 0.125 572.85 0.125 571 0.125L570.975 0ZM569.4 21.375C625.275 20.85 696.725 36.475 748.025 102.075C759.625 116.8 763.025 138.275 762.625 164.85C762.225 191.425 757.3 223.05 748.3 257.825C731 325.3 698.025 403.65 651.825 474.125C653.4 475.3 655.2 476.325 657.025 477C666.65 481.025 688.65 484.4 732.65 475.425C743.725 473.05 751.825 471.525 760.275 477.9C764.45 481.4 766.65 486.625 766.375 492.1C765.875 496.125 764.45 500.025 761.95 503.3C753.475 516.025 736.725 528.175 715.225 538.2C696.225 547.025 668.85 551.6 644.8 551.875C632.575 552 621.375 551.075 611.825 548.075L611.325 547.975C607.65 583.25 599.225 653.05 593.725 684.8C589.325 710.425 581.625 730.9 566.925 746.125C552.2 761.5 531.5 770.6 503.5 776.6C468.875 784.025 443.725 776.075 427.475 762.4C411.225 748.725 403.775 730.5 399.35 719.425C396.25 711.75 394.675 701.85 393.125 688.55C391.55 675.275 390.525 659.125 389.725 640.775C388.7 612.775 388.3 584.775 388.7 556.65C374.275 569.95 356.3 578.65 337 582.05C313.975 585.95 293.525 582.05 281.3 579.05C275.3 577.475 269.425 575.275 263.975 572.275C258.25 569.275 252.9 565.9 249.275 559.1C247.175 555.2 246.55 550.675 247.45 546.375C248.475 541.95 251.075 538.175 254.625 535.3C261.25 529.925 270 526.975 283.125 524.225C307.1 519.25 315.55 515.9 320.625 511.825C324.925 508.45 329.9 501.425 338.45 491.125C338.45 490.75 338.45 490.225 338.325 489.825C322.85 489.325 307.725 485.3 294.05 477.85C289.125 483.05 263.45 510.15 232.35 547.65C219.325 563.25 204.875 572.25 189.525 572.925C174.3 573.55 160.45 565.9 148.75 554.55C125.325 531.75 106.55 492.55 90.275 448.275C74 404 60.85 354.675 51.35 312.75C41.975 270.675 36.375 236.825 35.575 220.55C32.075 151.15 48.35 104.425 76.2 74.85C104.05 45.275 142.225 34.225 179.475 32.025C246.275 28.25 309.8 51.55 322.575 56.5C347.3 39.7 379.2 29.3 419.05 29.925C437.95 30.2 456.675 32.65 475.05 37.225L475.725 36.825C483.8 34.1 492 31.625 500.325 29.825C523 24.45 546.15 21.725 569.325 21.35L569.4 21.375ZM574.475 43.625H569.55C550.55 43.85 531.375 46.1 512.775 50.125C554.3 68.5 585.675 96.725 607.8 125.125C623.175 144.65 635.8 166.125 645.425 189.05C649.225 197.925 651.7 205.325 653 211.05C653.775 213.925 654.175 216.375 654.425 218.85C654.425 220.15 654.55 221.475 653.9 223.675C653.9 223.8 653.775 224.075 653.775 224.2C654.85 253.375 647.55 273.125 646.6 301C645.975 321.2 651.175 344.9 652.475 370.8C653.65 395.125 650.675 421.825 634.9 448.125C636.2 449.7 637.375 451.25 638.675 452.95C680.475 387.05 710.675 314.275 726.7 252.15C735.3 218.675 739.825 188.35 740.225 164.425C740.625 140.45 736.2 123 730.45 115.725C685.65 58.55 625.125 43.95 574.45 43.6L574.475 43.625ZM414.7 52.2C375.4 52.325 347.125 64.2 325.675 82.025C303.5 100.525 288.675 125.65 279.05 151.55C267.45 182.15 263.425 211.825 261.85 232.025L262.375 231.75C274.25 225.125 289.85 218.35 306.65 214.575C323.325 210.65 341.425 209.475 357.675 215.875C374.1 222.1 387.5 237.075 392.45 259.6C415.925 368.2 385.175 408.575 373.85 439.025C369.55 450.1 365.775 461.3 362.775 472.75C364.2 472.475 365.65 472.075 367.075 471.95C375.15 471.325 381.375 473.925 385.05 475.475C396.525 480.275 404.325 490.175 408.625 501.5C409.65 504.5 410.425 507.6 410.95 511C411.35 512.3 411.625 513.725 411.625 515.175C410.325 556.7 410.425 598.25 412 639.775C412.8 657.75 413.975 673.5 415.4 686C416.825 698.375 418.775 707.875 420.1 711.125C424.375 721.8 430.625 735.725 441.975 745.225C453.175 754.75 469.3 761 498.875 754.75C524.5 749.15 540.275 741.575 550.8 730.65C561.375 719.575 567.6 704.35 571.625 681.05C577.75 646.025 589.85 544.45 591.3 525.45C590.675 510.975 592.725 499.925 597.425 491.45C602.1 482.85 609.4 477.525 615.8 474.65C618.9 473.225 621.9 472.325 624.375 471.525C621.775 467.9 619.05 464.25 616.3 460.725C607.2 449.65 599.625 437.3 594.025 424.15C591.425 418.65 588.55 413.175 585.425 407.975C581.025 400.05 575.425 390 569.55 378.675C557.825 356.275 545.075 328.95 538.425 302.375C531.8 275.8 530.9 248.35 547.825 229.075C562.8 211.875 589.225 204.75 628.65 208.775C627.475 205.25 626.85 202.25 624.875 197.7C615.9 176.6 604.175 156.8 590.1 138.825C556.625 96 502.325 53.525 418.625 52.1L414.7 52.2ZM193.375 53.9C189.2 53.9 184.9 54.025 180.75 54.3C147.025 56.275 115.25 66 92.45 90.1C69.675 114.325 54.725 153.775 57.95 219.275C58.625 231.775 63.95 266.4 73.175 307.675C82.45 348.975 95.575 397.55 111.35 440.5C127.075 483.325 146.125 520.7 164.35 538.4C173.45 547.125 181.375 550.775 188.55 550.525C195.725 550.125 204.45 545.95 215.125 533.2C234.525 509.775 254.6 487.1 275.425 464.975C245.45 438.8 230.75 399.25 236.625 359.9C240 335.3 240.525 312.225 240 294C239.625 276.3 238.425 264.6 238.425 257.175C238.425 256.9 238.425 256.775 238.425 256.5V256.375L238.3 256.15C238.3 217.725 245.1 179.725 258.1 143.65C267.475 118.75 281.3 93.65 302.1 73.175C281.675 66.4 245.325 56.275 206.025 54.3C201.85 54.025 197.525 53.9 193.375 53.9ZM606.625 229.925C584 230.325 571.35 236.2 564.6 243.725C555.2 254.55 554.3 273.55 560.175 297C566 320.425 578.15 346.6 589.475 368.375C595.075 379.3 600.55 389.075 604.95 397C609.525 405.075 612.775 410.675 614.725 415.625C616.55 420.05 618.65 423.95 620.725 427.6C629.45 409.1 631.025 391 630.1 372C628.925 348.575 623.475 324.6 624.375 300.4C625.3 272 630.9 253.5 631.3 231.625C623.2 230.6 614.875 229.925 606.675 229.925H606.625ZM332.175 233.875C325.275 233.875 318.375 234.775 311.6 236.35C298.175 239.625 285.3 244.55 273.175 251.325C269.15 253.525 265.25 256.025 261.6 258.9L260.8 259.525C261.075 264.5 261.975 276.2 262.375 293.65C262.775 312.65 262.375 336.85 258.75 363.05C250.675 420.075 292.075 467.225 340.65 467.35C343.525 455.625 348.175 443.75 352.875 431.275C366.4 394.8 392.975 368.25 370.575 264.35C366.95 247.425 359.65 240.525 349.6 236.625C344 234.65 338.175 233.75 332.175 233.9V233.875ZM596.1 240.625H597.8C599.875 240.75 601.975 240.9 603.775 241.4C605.475 241.8 607.05 242.325 608.35 243.225C609.65 244 610.55 245.3 610.825 246.85V247.125C610.825 248.7 610.425 250.25 609.65 251.7C608.625 253.5 607.45 255.2 606.025 256.625C602.625 260.4 598.05 262.9 593.125 263.65C588.3 264.325 583.5 263.025 579.45 260.275C577.875 259.075 576.325 257.775 575.15 256.35C573.975 255.175 573.325 253.625 573.05 252.05C572.95 250.525 573.325 248.95 574.35 247.775C575.55 246.575 576.85 245.55 578.275 244.775C581.5 242.95 585.8 241.65 590.775 240.975C592.575 240.75 594.4 240.6 596.1 240.475V240.625ZM335.4 246.225C337.1 246.225 339.075 246.35 340.9 246.6C346.1 247.4 350.525 248.7 354.025 250.775C355.725 251.575 357.3 252.875 358.45 254.3C359.75 255.875 360.375 257.8 360.275 259.9C359.875 261.825 359.075 263.675 357.775 265.1C356.35 266.8 354.8 268.225 352.975 269.4C348.675 272.525 343.35 273.825 338 273.175C332.625 272.275 327.7 269.675 324.075 265.65C322.5 263.95 321.2 262.125 320.15 260.175C318.975 258.35 318.475 256.275 318.725 254.175C319.25 250.675 322.25 248.7 325.125 247.675C328.4 246.6 331.9 246.25 335.4 246.375V246.225ZM637.375 491H637.25C632.45 492.825 628.425 493.5 625.025 495.075C621.525 496.375 618.75 498.975 617.1 502.2C614.875 506 613.2 512.775 613.7 524.325C615.125 525.4 616.825 526.15 618.675 526.7C624.275 528.4 633.9 529.575 644.575 529.425C665.8 529.15 691.975 524.225 705.9 517.7C717.225 512.5 727.9 505.475 737.275 497.275C690.8 506.775 664.65 504.3 648.475 497.675C644.575 495.975 640.775 493.75 637.375 491ZM369.675 494.125H369C367.2 494.25 364.7 494.925 359.625 500.4C348.025 513.4 344 521.6 334.5 529.175C324.875 536.85 312.5 540.9 287.625 545.975C279.825 547.55 275.25 549.35 272.25 550.775C273.15 551.575 273.15 551.85 274.575 552.475C278.25 554.575 282.9 556.275 286.7 557.3C297.375 559.9 314.8 563.025 333.175 559.9C351.4 556.775 370.4 548.025 386.7 525.275C389.575 521.375 389.8 515.5 387.475 509.25C385.15 503.15 380.05 497.675 376.55 496.25C374.325 495.175 371.975 494.55 369.65 494.15L369.675 494.125Z" fill="currentColor"/>
    </g>
</svg>