<svg width="800" height="800" viewBox="0 0 800 800" fill="none" xmlns="http://www.w3.org/2000/svg">
<path d="M393.664 334.491C393.374 335.177 393.099 336.063 392.844 337.132L392.656 337.967C392.594 338.257 392.534 338.557 392.475 338.869L392.303 339.836L392.139 340.866L391.984 341.957L391.837 343.108L391.701 344.317L391.574 345.581C391.553 345.797 391.534 346.014 391.514 346.234L391.402 347.579L391.302 348.976L391.212 350.423C391.198 350.669 391.184 350.916 391.171 351.165L400.134 355.503C399.998 350.27 400.167 345.322 400.638 340.777L400.73 339.966L400.667 340.709L400.587 341.936L400.558 342.522L400.509 343.857L400.49 344.609L400.47 346.28L400.473 347.684L400.494 349.217L400.52 350.313L400.578 352.067L400.63 353.311L400.695 354.615C400.707 354.837 400.72 355.062 400.733 355.29C402.402 353.928 404.402 352.141 406.481 350.188L407.876 348.864C408.11 348.64 408.344 348.415 408.577 348.189L409.977 346.823L411.359 345.45L412.708 344.088L414.005 342.753C412.571 339.824 411.025 337.671 409.586 336.099L409.111 335.596C408.798 335.275 408.49 334.981 408.192 334.713L407.752 334.329L407.327 333.982C407.188 333.872 407.052 333.768 406.919 333.67L406.53 333.391L406.161 333.143L405.652 332.828L405.199 332.575L404.693 332.324L404.315 332.161L403.623 331.912L403.12 331.75L402.628 331.611L402.254 331.517L401.847 331.426C401.777 331.411 401.706 331.397 401.633 331.383L401.186 331.303L400.716 331.236C398.238 330.925 395.037 331.251 393.664 334.491Z" fill="#333333"/>
<path d="M402.479 381.958C402.065 378.976 401.687 376.043 401.346 373.158C401.068 370.763 400.841 368.404 400.655 366.067L400.496 363.973C400.493 363.918 400.492 363.864 400.492 363.813C400.296 360.973 400.155 358.207 400.091 355.496L391.147 351.183L391.122 351.731L391.062 352.869C390.973 355.012 390.907 357.289 390.888 359.682C390.866 362.38 390.892 365.194 390.941 368.142C391.004 370.853 391.115 373.68 391.262 376.556C391.37 378.402 391.489 380.263 391.626 382.147L391.79 384.326L403.756 390.388L403.334 387.564L402.479 381.958Z" fill="#333333"/>
<path d="M419.786 451.444L419.971 452.082L421.16 456.12C421.33 456.694 421.503 457.27 421.679 457.849L422.246 459.685L422.44 460.346C422.475 460.453 422.511 460.561 422.553 460.669L424.481 466.846C426.188 466.493 428.269 467.13 430.467 468.089L431.352 468.488C429.733 466.541 427.494 465.239 424.817 464.937C432.145 460.049 436.967 453.753 436.29 446.243C436.217 445.579 436.127 444.889 435.994 444.194C435.883 446.962 434.778 448.995 431.575 451.166L431.181 451.428C434.494 445.597 435.405 441.642 435.014 436.528C434.917 435.315 434.766 434.029 434.542 432.644C433.483 440.258 429.394 445.185 423.414 448.101L419.786 451.444Z" fill="#333333"/>
<path d="M415.494 442.508L414.733 439.654L413.202 433.879C412.476 431.088 411.774 428.279 411.079 425.428C410.383 422.576 409.713 419.707 409.042 416.838C408.36 413.901 407.72 410.971 407.105 408.023L406.498 405.109L405.332 399.278C405.124 398.222 404.934 397.191 404.75 396.117C404.415 394.323 404.105 392.511 403.795 390.699L403.731 390.406L391.833 384.333L391.872 384.71C391.876 384.775 391.878 384.841 391.876 384.906C392.116 387.6 392.349 390.337 392.668 393.087C392.98 395.88 393.335 398.679 393.75 401.509C394.103 403.894 394.48 406.261 394.876 408.652L395.135 410.086C395.683 413.045 396.268 415.902 396.905 418.57C397.616 421.598 398.379 424.438 399.149 427.083C399.667 428.818 400.174 430.485 400.693 432.068L401.154 433.401L402.107 436.054C403.245 439.147 404.505 442.15 405.863 445.082L417.889 451.174C417.248 448.963 416.656 446.716 416.004 444.437L415.67 443.16L415.494 442.508Z" fill="#333333"/>
<path d="M406.041 445.479C407.491 448.58 409.072 451.584 410.817 454.467L411.785 456.032C410.645 455.573 409.204 455.345 407.804 455.243L407.109 455.202C406.994 455.197 406.88 455.193 406.767 455.189L406.1 455.174L405.159 455.178L404.32 455.202L403.614 455.239L402.625 455.32C402.617 455.321 402.614 455.322 402.614 455.322C408.695 457.431 414.027 460.014 417.391 463.928C416.055 465.4 413.552 466.519 410.406 467.431C412.748 467.685 414.533 467.581 415.819 467.371L416.34 467.276C416.422 467.259 416.501 467.242 416.578 467.224L417.01 467.117L417.383 467.008L417.836 466.85L418.069 466.755C416.137 468.366 414.928 471.11 413.923 474.187L413.576 475.285C413.519 475.47 413.463 475.656 413.407 475.842C415.965 471.66 418.503 468.891 420.975 467.833C423.735 476.985 426.927 486.725 430.43 496.89L432.068 501.61C432.622 503.194 433.182 504.786 433.748 506.388C434.563 505.337 434.654 504.174 434.313 502.989L433.193 499.825L431.917 496.127L429.94 490.262L428.32 485.344L426.53 479.795L424.821 474.381L423.252 469.307L422.098 465.508L421.159 462.372C421.033 461.96 420.919 461.541 420.795 461.117L420.441 459.952L419.427 456.448L418.395 452.842L417.931 451.181L417.913 451.156L405.887 445.064C405.915 445.169 405.945 445.256 405.982 445.344L406.041 445.479Z" fill="#333333"/>
<path d="M405.154 390.646L405.367 391.812C405.521 392.605 405.664 393.406 405.817 394.212L407.118 400.887L407.596 403.211L408.292 406.497C408.41 407.052 408.53 407.61 408.651 408.173C409.01 409.836 409.388 411.525 409.785 413.25L410.602 416.75L411.415 420.165C411.554 420.741 411.695 421.322 411.837 421.905L412.711 425.439L413.584 428.873C414.027 430.608 414.483 432.372 414.965 434.171C415.317 435.499 415.682 436.846 416.055 438.21L417.306 442.764L418.251 446.111L419.227 449.529C419.392 450.104 419.559 450.681 419.727 451.26C419.739 451.328 419.75 451.395 419.786 451.444L423.414 448.101L423.326 448.138L423.132 448.232C427.438 444.166 431.127 436.019 431.971 428.677C432.359 425.295 432.323 421.695 431.858 417.768C431.523 414.842 430.928 411.766 430.11 408.438C429.396 405.562 428.515 402.508 427.439 399.294C426.774 400.651 425.828 401.987 424.67 403.291L424.041 403.978L423.826 404.202L423.37 404.66C426.546 399.723 426.924 394.422 425.982 388.919C425.405 390.551 424.271 392.97 422.391 395.143C422.151 395.432 421.867 395.716 421.584 395.999C421.535 396.035 421.494 396.082 421.443 396.131L421.357 396.204C422.41 394.449 423.189 392.782 423.688 391.094C423.767 390.859 423.828 390.622 423.882 390.383L423.96 390.025C424.088 389.478 424.173 388.925 424.258 388.371L424.378 387.301C424.426 386.671 424.44 386.024 424.409 385.366L424.326 384.157C424.318 384.068 424.307 383.979 424.292 383.889L424.166 383.115C424.144 382.991 424.122 382.869 424.097 382.749C423.851 381.31 423.581 380.029 423.302 378.892L423.041 377.872L422.805 377.01L422.498 375.99L422.099 374.796C422.057 374.675 422.015 374.56 421.972 374.45L421.731 373.847C421.654 373.662 421.58 373.493 421.51 373.34L421.312 372.933C421.273 373.087 421.224 373.249 421.159 373.411L421.048 373.655C420.299 375.413 418.557 377.825 416.968 379.52C416.944 379.538 416.919 379.556 416.912 379.599L416.585 379.926C416.529 379.985 416.473 380.047 416.42 380.111L416.482 379.99L405.052 390.456C405.149 390.537 405.16 390.604 405.154 390.646Z" fill="#333333"/>
<path d="M400.733 355.29C400.779 356.124 400.834 356.995 400.898 357.899L401.037 359.754C401.061 360.07 401.087 360.391 401.114 360.715L401.284 362.704C401.314 363.043 401.345 363.385 401.376 363.731L401.403 364.061C401.41 364.114 401.418 364.166 401.432 364.219C401.529 365.239 401.637 366.287 401.756 367.369L402.009 369.577C402.099 370.328 402.194 371.095 402.294 371.878L402.77 375.47C402.992 377.1 403.233 378.789 403.502 380.551L403.71 381.886C403.915 383.246 404.142 384.637 404.383 386.065L405.137 390.469L416.567 380.003C418.951 375.685 419.472 372.999 419.439 369.661C419.428 368.99 419.396 368.29 419.352 367.574L419.304 366.852C419.121 363.927 418.769 360.824 418.271 357.828C417.801 354.924 417.227 352.135 416.57 349.747C416.154 348.202 415.711 346.827 415.26 345.647C414.851 344.626 414.428 343.689 413.999 342.796L412.703 344.119C412.482 344.342 412.259 344.567 412.035 344.793L410.669 346.154L409.277 347.519L407.875 348.871C407.641 349.094 407.408 349.316 407.176 349.536L405.791 350.835C403.961 352.533 402.217 354.08 400.733 355.29Z" fill="#333333"/>
<path d="M331.438 339.511C337.783 340.197 343.357 341.483 348.159 343.37C353.132 345.256 357.162 347.828 360.249 351.087C363.508 354.174 365.651 358.204 366.68 363.177C367.195 366.093 367.195 369.437 366.68 373.21C366.166 376.983 365.48 380.841 364.622 384.786L353.046 442.151C352.532 445.41 351.932 448.754 351.246 452.184C350.56 455.442 350.302 458.443 350.474 461.187C350.474 461.702 350.388 462.302 350.217 462.988V464.532C350.217 466.418 350.045 468.305 349.702 470.191C349.359 472.077 348.244 473.364 346.358 474.05C345.157 474.564 343.871 474.821 342.499 474.821H319.862C318.49 474.65 317.461 474.221 316.775 473.535C315.746 472.849 315.06 471.906 314.717 470.705C314.374 469.333 313.774 468.219 312.916 467.361C312.573 467.018 312.144 466.761 311.63 466.59C311.287 466.247 310.687 466.161 309.829 466.332C308.8 466.675 307.857 467.104 307 467.619C306.142 468.133 305.285 468.562 304.427 468.905C303.398 469.591 302.283 470.191 301.083 470.705C300.054 471.22 298.939 471.734 297.739 472.249C295.338 473.278 292.851 474.135 290.279 474.821C287.706 475.336 285.134 475.936 282.561 476.622C281.189 476.965 279.903 477.137 278.703 477.137C277.674 477.308 276.559 477.48 275.358 477.651H273.815C273.301 477.823 272.786 477.908 272.272 477.908H269.442C267.555 478.251 265.84 478.251 264.297 477.908H261.982C260.781 477.565 259.581 477.394 258.38 477.394C257.351 477.565 256.322 477.48 255.293 477.137C253.75 476.794 252.207 476.451 250.663 476.108C249.12 475.936 247.748 475.507 246.547 474.821C241.917 472.935 238.144 470.534 235.228 467.619C232.313 464.532 230.341 460.501 229.312 455.528C228.969 454.328 228.712 453.041 228.54 451.669C228.54 450.297 228.454 448.84 228.283 447.296C228.111 446.439 228.111 445.581 228.283 444.724C228.626 443.866 228.797 443.009 228.797 442.151C228.797 441.637 228.883 440.608 229.055 439.064C229.398 437.349 229.741 436.149 230.084 435.463C230.769 433.748 231.198 432.29 231.37 431.09L233.942 425.43C234.971 423.373 236.086 421.572 237.286 420.028C241.059 415.055 245.089 411.282 249.377 408.71C253.664 406.137 258.981 403.908 265.326 402.021C267.727 401.164 270.128 400.564 272.529 400.221C274.93 399.878 277.416 399.449 279.989 398.934C281.361 398.591 282.819 398.42 284.362 398.42C286.077 398.248 287.706 397.991 289.25 397.648C290.45 397.305 291.651 397.219 292.851 397.391C294.052 397.391 295.424 397.219 296.967 396.876C298.167 396.533 299.368 396.362 300.568 396.362C301.769 396.362 303.055 396.19 304.427 395.847C308.2 394.99 311.63 394.304 314.717 393.789C317.975 393.103 321.062 391.56 323.978 389.159C325.693 387.616 327.065 385.901 328.094 384.014C328.265 383.5 328.351 383.071 328.351 382.728C328.351 382.385 328.437 382.042 328.608 381.699C328.951 381.356 329.123 380.841 329.123 380.155C329.294 379.47 329.466 378.955 329.637 378.612V374.753C328.951 369.608 326.036 366.093 320.891 364.206C319.519 363.692 317.718 363.349 315.489 363.177C313.431 362.834 311.287 362.749 309.057 362.92C306.828 362.92 304.599 363.092 302.369 363.435C300.311 363.778 298.51 364.206 296.967 364.721C295.767 365.064 294.652 365.578 293.623 366.264C292.594 366.779 291.565 367.379 290.536 368.065C289.507 368.751 288.392 369.694 287.192 370.895C285.991 372.095 285.134 373.21 284.619 374.239C283.419 375.954 282.39 377.583 281.532 379.127C280.675 380.67 279.217 381.699 277.159 382.213C275.787 382.556 274.33 382.728 272.786 382.728H258.38C257.523 382.728 256.58 382.814 255.551 382.985C254.693 382.985 254.007 382.899 253.493 382.728H251.178C250.835 382.556 250.406 382.471 249.891 382.471C249.377 382.471 248.948 382.299 248.605 381.956C247.405 381.613 246.719 380.498 246.547 378.612C246.547 377.755 246.719 376.897 247.062 376.04C247.405 375.182 247.748 374.41 248.091 373.724C248.948 371.838 249.806 370.123 250.663 368.58C251.692 366.865 252.721 365.321 253.75 363.949L255.808 361.377C256.494 360.519 257.18 359.662 257.866 358.804C259.581 356.918 261.639 355.117 264.04 353.402C264.554 353.231 265.154 352.802 265.84 352.116C266.869 351.43 267.727 350.83 268.413 350.315C269.27 349.801 270.214 349.286 271.243 348.772C274.501 346.885 277.845 345.428 281.275 344.399C284.877 343.198 288.478 342.083 292.079 341.054C294.309 340.54 296.538 340.197 298.768 340.025C300.997 339.854 303.312 339.511 305.713 338.996C306.399 338.825 307.428 338.825 308.8 338.996C310.172 339.168 311.115 339.082 311.63 338.739C318.661 338.568 325.264 338.825 331.438 339.511ZM617.429 341.569C623.26 343.627 628.319 346.371 632.606 349.801C633.978 350.83 635.265 352.03 636.465 353.402C637.837 354.603 638.952 355.889 639.809 357.261C640.152 358.118 640.752 358.804 641.61 359.319C642.639 361.205 643.496 363.177 644.182 365.235C645.04 367.122 645.983 369.094 647.012 371.152C647.527 372.695 647.87 374.325 648.041 376.04C648.384 377.583 648.727 379.298 649.07 381.184C649.413 383.414 649.584 385.729 649.584 388.13C649.756 390.531 649.927 392.932 650.099 395.333C650.099 396.705 649.842 398.248 649.327 399.963C648.984 401.507 648.899 402.964 649.07 404.336L648.556 407.166C648.556 408.538 648.213 410.082 647.527 411.797C646.841 413.511 645.983 414.626 644.954 415.141C644.097 415.827 642.81 416.341 641.095 416.684C639.38 416.856 637.494 417.027 635.436 417.199H629.519C627.633 417.027 625.918 416.941 624.375 416.941H558.006C556.977 416.941 556.033 417.113 555.176 417.456C553.632 418.142 552.603 418.828 552.089 419.514C551.746 419.857 551.231 420.543 550.546 421.572C550.031 422.429 549.774 423.287 549.774 424.144C549.945 425.173 549.945 426.202 549.774 427.231C549.774 428.089 549.859 429.032 550.031 430.061C550.545 434.177 551.489 437.607 552.861 440.351C554.404 442.923 556.634 445.238 559.549 447.296C560.75 448.154 562.036 448.754 563.408 449.097C564.951 449.268 566.409 449.611 567.781 450.126C569.153 450.469 570.954 450.726 573.183 450.898C575.584 451.069 577.728 450.983 579.614 450.64H581.929C583.644 450.297 585.273 449.954 586.817 449.611L591.447 448.068C593.334 447.21 595.477 446.096 597.878 444.724C600.279 443.352 602.166 441.98 603.538 440.608C604.567 439.407 605.681 438.293 606.882 437.264C608.082 436.063 609.369 435.206 610.741 434.691C612.627 433.834 614.857 433.491 617.429 433.662H627.976C629.176 433.491 630.205 433.577 631.063 433.92H633.635C635.179 434.263 636.294 434.691 636.98 435.206C637.494 435.549 637.666 436.32 637.494 437.521C637.494 438.721 637.237 439.75 636.722 440.608C635.35 443.009 633.893 445.153 632.349 447.039C630.977 448.925 629.434 450.812 627.719 452.698C622.917 458.358 617.772 462.902 612.284 466.332C606.796 469.762 600.194 472.678 592.476 475.079C590.418 475.765 588.446 476.193 586.56 476.365C584.673 476.536 582.615 476.879 580.386 477.394C579.7 477.565 578.928 477.565 578.071 477.394C577.385 477.394 576.699 477.48 576.013 477.651H573.183C572.154 477.994 571.125 478.08 570.096 477.908C569.067 477.908 568.124 477.823 567.266 477.651C565.894 477.48 564.694 477.48 563.665 477.651C562.636 477.823 561.521 477.737 560.321 477.394C559.463 477.051 558.52 476.879 557.491 476.879C556.462 476.879 555.605 476.708 554.919 476.365C553.032 476.022 551.146 475.593 549.259 475.079C547.544 474.736 546.001 474.135 544.629 473.278C542.914 472.592 541.285 471.992 539.741 471.477C538.198 470.791 536.826 470.019 535.625 469.162C530.823 465.732 526.708 461.788 523.278 457.329C520.019 452.698 517.618 447.382 516.075 441.38C515.56 439.493 515.217 437.607 515.046 435.72C515.046 433.662 514.789 431.604 514.274 429.546V427.746C514.446 427.06 514.531 426.374 514.531 425.688C514.36 423.63 514.36 421.4 514.531 418.999L515.56 411.797C515.732 410.939 515.817 409.996 515.817 408.967C515.989 407.938 516.246 406.995 516.589 406.137L517.361 403.05L519.419 396.876C520.619 393.961 521.734 391.131 522.763 388.387C523.792 385.643 525.078 383.071 526.622 380.67C537.598 362.834 552.689 350.229 571.897 342.855C574.469 341.826 577.042 341.14 579.614 340.797C582.187 340.283 584.93 339.682 587.846 338.996C589.218 338.825 590.504 338.739 591.705 338.739C592.905 338.739 594.191 338.653 595.563 338.482C604.31 338.31 611.598 339.339 617.429 341.569ZM84.6762 291.406C87.5917 291.406 89.6496 292.006 90.8501 293.207C91.8791 294.064 92.4793 295.351 92.6508 297.066C92.8223 298.609 93.0795 300.153 93.4225 301.696C93.7655 304.44 94.1085 307.27 94.4515 310.185C94.966 312.929 95.3947 315.759 95.7377 318.674C97.6242 329.478 99.1676 340.454 100.368 351.601C101.74 362.749 103.369 373.81 105.256 384.786C105.942 388.216 106.456 391.731 106.799 395.333C107.142 398.934 107.657 402.45 108.343 405.88C108.514 406.737 108.686 407.595 108.857 408.452C109.029 409.31 109.457 409.996 110.143 410.51C110.486 410.682 110.744 410.853 110.915 411.025C111.258 411.196 111.687 411.111 112.201 410.768C113.573 410.425 114.688 409.396 115.546 407.681C116.403 405.966 117.26 404.422 118.118 403.05C120.176 399.106 122.148 395.247 124.035 391.474C125.921 387.53 127.979 383.585 130.208 379.641C135.696 369.18 141.184 358.718 146.672 348.257C152.331 337.624 157.905 326.992 163.393 316.359C164.765 313.615 166.137 310.957 167.509 308.384C169.052 305.64 170.51 302.896 171.882 300.153C172.568 298.781 173.34 297.409 174.197 296.037C175.055 294.665 176.255 293.55 177.799 292.692C178.999 291.835 180.371 291.406 181.915 291.406H226.161C227.875 291.406 229.076 291.749 229.762 292.435C231.477 293.464 231.991 295.436 231.305 298.352C230.791 301.096 230.276 303.925 229.762 306.841L222.045 345.428L202.751 441.122L198.378 463.503C198.035 465.389 197.606 467.276 197.092 469.162C196.577 470.877 195.72 472.163 194.519 473.021C193.319 473.878 191.947 474.393 190.404 474.564H165.965C164.765 474.221 163.65 473.964 162.621 473.792C161.764 473.621 161.078 473.021 160.563 471.992C160.049 471.134 159.877 470.019 160.049 468.648C160.392 467.276 160.735 465.818 161.078 464.274L163.65 451.155L177.027 385.043C177.37 382.642 177.713 380.413 178.056 378.355C178.57 376.125 178.999 373.896 179.342 371.666C179.685 370.294 180.028 368.923 180.371 367.551C180.714 366.007 180.886 364.549 180.886 363.177C180.714 361.977 180.714 360.691 180.886 359.319C181.229 357.947 180.971 357.089 180.114 356.746C179.599 356.575 179.171 356.661 178.828 357.004L178.056 357.775C177.198 358.461 176.427 359.319 175.741 360.348L174.197 362.92C172.654 365.493 171.11 368.151 169.567 370.895C168.195 373.639 166.651 376.383 164.936 379.127L163.393 382.213C163.05 383.242 162.535 384.271 161.849 385.3C160.478 387.53 159.191 389.759 157.991 391.989C156.962 394.218 155.761 396.448 154.389 398.677C154.046 399.192 153.789 399.792 153.618 400.478C153.446 400.992 153.189 401.507 152.846 402.021C151.817 403.565 150.874 405.194 150.016 406.909C149.33 408.624 148.387 410.339 147.187 412.054C146.158 413.597 145.214 415.226 144.357 416.941C143.671 418.656 142.813 420.371 141.784 422.086C138.697 427.06 135.868 432.119 133.295 437.264C130.723 442.237 128.065 447.21 125.321 452.184C124.806 452.698 124.463 453.213 124.292 453.727C124.292 454.242 124.035 454.756 123.52 455.271C122.32 457.157 121.205 459.129 120.176 461.187C119.318 463.074 118.289 464.96 117.089 466.847C116.403 468.047 115.717 469.162 115.031 470.191C114.345 471.22 113.573 472.077 112.716 472.763C111.687 473.449 110.744 473.878 109.886 474.05C109.029 474.05 107.914 474.221 106.542 474.564H100.625C99.4249 474.564 97.9672 474.65 96.2522 474.821H91.3646C89.8211 474.821 88.3634 474.736 86.9914 474.564C85.6194 474.393 84.6762 474.05 84.1617 473.535C82.9613 472.678 82.1895 471.734 81.8465 470.705C81.675 469.505 81.332 468.133 80.8176 466.59C80.4746 464.532 80.2173 462.474 80.0458 460.416C79.8743 458.186 79.5313 456.043 79.0168 453.985L78.7596 451.669C78.2451 449.611 77.9021 447.468 77.7306 445.238C77.5591 442.837 77.2161 440.608 76.7016 438.55V437.264C76.7016 436.749 76.6159 436.235 76.4444 435.72C75.9299 434.177 75.5869 432.548 75.4154 430.833C75.2439 429.118 74.9867 427.403 74.6437 425.688V424.401C74.6437 423.887 74.5579 423.458 74.3864 423.115C74.0435 421.4 73.7862 419.685 73.6147 417.97C73.6147 416.255 73.3575 414.54 72.843 412.826C72.157 409.396 71.5568 405.794 71.0423 402.021C70.6993 398.248 70.1848 394.561 69.4988 390.96C68.8128 386.672 68.2126 382.299 67.6981 377.84C67.3551 373.381 66.5834 369.094 65.3829 364.978C65.0399 362.577 64.5254 360.605 63.8394 359.061C63.4964 358.718 63.1535 358.461 62.8105 358.29C62.639 357.947 62.296 357.947 61.7815 358.29C60.7525 358.804 60.0665 359.662 59.7235 360.862C59.552 362.063 59.209 363.263 58.6946 364.464C58.0086 365.664 57.5798 366.95 57.4083 368.322C57.2368 369.523 57.0653 370.809 56.8938 372.181C56.5509 374.067 56.1221 375.954 55.6076 377.84C55.2646 379.727 54.8359 381.613 54.3214 383.5L40.6875 451.927L38.115 464.532L37.086 468.648C36.9145 470.019 36.4001 471.134 35.5426 471.992C34.6851 473.192 33.2274 473.964 31.1694 474.307C29.969 474.65 28.6827 474.821 27.3108 474.821C25.9388 474.65 24.5668 474.564 23.1949 474.564H4.67327C3.1298 474.393 1.92933 473.878 1.07185 473.021C0.21437 472.163 -0.128622 470.877 0.042874 469.162L1.07185 463.503L5.445 440.865L24.7383 345.17L31.9412 309.156C32.1127 308.127 32.2841 306.927 32.4556 305.555C32.7986 304.011 33.1416 302.553 33.4846 301.182C33.8276 299.81 34.1706 298.523 34.5136 297.323C35.0281 295.951 35.4568 294.922 35.7998 294.236C36.8288 293.035 38.3723 292.178 40.4302 291.663C40.9447 291.492 41.2877 291.492 41.4592 291.663C41.8022 291.663 42.2309 291.578 42.7454 291.406H84.6762ZM784.179 343.112C790.525 346.371 794.984 351.173 797.556 357.518C798.414 359.404 798.928 361.462 799.1 363.692C799.443 365.75 799.7 367.894 799.871 370.123C800.043 371.495 800.043 372.781 799.871 373.982C799.7 375.182 799.7 376.383 799.871 377.583C799.528 378.612 799.443 379.298 799.614 379.641C799.443 382.042 799.1 384.529 798.585 387.101C798.071 389.674 797.556 392.16 797.042 394.561L792.669 417.456L784.179 459.129C783.494 462.388 782.807 465.561 782.122 468.648C781.436 471.563 779.806 473.449 777.234 474.307C776.205 474.65 775.004 474.821 773.632 474.821H755.625C753.567 474.821 751.767 474.736 750.223 474.564C748.68 474.221 747.565 473.449 746.879 472.249C746.365 471.22 746.193 469.934 746.365 468.39C746.708 466.675 747.051 464.875 747.394 462.988L750.995 444.981L758.712 406.652C759.913 400.306 760.77 394.475 761.285 389.159C761.971 383.671 761.371 379.041 759.484 375.268C757.769 371.838 754.768 369.437 750.481 368.065C749.623 367.722 748.68 367.551 747.651 367.551C746.793 367.551 745.936 367.379 745.078 367.036C744.221 366.865 743.106 366.865 741.734 367.036C740.534 367.036 739.591 367.122 738.905 367.293C738.047 367.465 737.361 367.551 736.847 367.551C736.332 367.551 735.818 367.636 735.303 367.808C731.187 368.837 727.757 370.209 725.013 371.924C718.668 375.868 714.209 381.613 711.637 389.159C709.236 396.705 707.092 405.194 705.205 414.626L698.774 446.782L695.687 462.474C695.344 464.017 695.002 465.561 694.659 467.104C694.316 468.648 693.801 469.934 693.115 470.963C691.915 472.849 690.285 473.964 688.227 474.307C686.341 474.65 684.026 474.821 681.282 474.821H668.42C666.533 474.821 664.647 474.736 662.76 474.564C660.874 474.393 659.673 473.792 659.159 472.763C658.13 471.22 657.958 468.99 658.644 466.075C659.33 463.16 659.931 460.416 660.445 457.843L667.391 422.858L678.709 366.264L681.539 353.145C681.882 351.258 682.225 349.543 682.568 348C682.911 346.457 683.683 345.17 684.883 344.141C685.226 343.627 685.826 343.284 686.684 343.112C687.541 342.769 688.399 342.512 689.256 342.341H690.543C691.4 342.169 692.258 342.083 693.115 342.083H706.749C708.121 342.083 709.407 342.169 710.608 342.341C711.98 342.341 713.18 342.512 714.209 342.855C715.238 343.37 715.838 344.141 716.01 345.17C716.353 346.199 716.524 347.4 716.524 348.772C716.524 349.458 716.439 350.058 716.267 350.572C716.096 351.087 716.096 351.601 716.267 352.116C716.439 352.973 716.61 353.488 716.782 353.659C717.125 353.831 717.553 354.088 718.068 354.431C719.783 354.603 721.412 354.002 722.955 352.63C724.499 351.087 726.042 349.886 727.586 349.029C732.902 345.599 738.562 342.855 744.564 340.797C746.279 340.283 747.908 339.94 749.451 339.768C751.166 339.597 753.053 339.339 755.111 338.996C755.625 338.825 756.397 338.825 757.426 338.996C758.455 338.996 759.141 338.911 759.484 338.739C769.774 338.396 778.006 339.854 784.179 343.112ZM317.289 413.083C316.603 413.254 316.003 413.426 315.489 413.597C314.974 413.597 314.288 413.683 313.431 413.854C312.23 414.197 310.944 414.455 309.572 414.626C308.2 414.798 306.742 415.055 305.199 415.398C304.684 415.569 303.913 415.655 302.884 415.655C300.483 416.17 298.167 416.513 295.938 416.684C293.709 416.856 291.479 417.284 289.25 417.97L285.134 418.999C283.933 419.171 282.733 419.514 281.532 420.028C277.588 421.572 274.072 423.887 270.985 426.974C267.898 430.061 266.098 434.348 265.583 439.836C265.412 442.752 265.926 445.153 267.127 447.039C267.813 448.925 269.27 450.469 271.5 451.669C273.729 452.698 276.216 453.47 278.96 453.985C281.704 454.499 284.619 454.671 287.706 454.499C290.965 454.156 294.052 453.556 296.967 452.698C301.769 451.326 305.713 449.183 308.8 446.267C312.059 443.18 314.803 439.407 317.032 434.949C317.547 433.748 317.975 432.548 318.318 431.347C318.661 429.975 319.176 428.603 319.862 427.231L320.376 424.916C320.719 424.059 320.976 423.115 321.148 422.086C321.319 420.886 321.405 419.857 321.405 418.999C321.405 417.97 321.491 417.027 321.662 416.17C321.834 415.312 321.577 414.626 320.891 414.112C320.205 413.426 319.004 413.083 317.289 413.083ZM590.418 365.493C589.904 365.836 589.304 365.921 588.618 365.75C587.932 365.578 587.331 365.578 586.817 365.75C585.788 366.093 584.759 366.35 583.73 366.522C582.701 366.522 581.758 366.693 580.9 367.036C572.84 369.437 566.323 374.153 561.35 381.184C560.835 381.87 560.235 382.814 559.549 384.014C558.863 385.043 558.349 386.158 558.006 387.358C557.663 388.387 557.491 389.416 557.491 390.445C557.491 391.474 557.92 392.332 558.777 393.018C559.978 393.875 561.778 394.304 564.179 394.304H607.139C609.883 394.132 611.77 393.361 612.799 391.989C614.342 390.274 614.857 388.216 614.342 385.815C613.999 383.242 613.742 381.356 613.57 380.155C612.027 375.525 609.54 372.009 606.11 369.608C602.68 367.036 597.45 365.664 590.418 365.493Z" fill="#333333"/>
<path d="M510.776 336.737C510.41 336.888 510.011 337.078 509.581 337.304L508.914 337.673C508.454 337.937 507.965 338.237 507.447 338.573L506.65 339.104L505.812 339.687L504.936 340.321L504.021 341.005C503.866 341.123 503.709 341.243 503.551 341.366L502.583 342.124L501.58 342.93L500.545 343.783L499.479 344.682L498.383 345.626L497.258 346.615L496.107 347.647C495.913 347.822 495.718 348 495.521 348.179L499.29 358.791C503.366 354.441 507.462 350.568 511.48 347.268L512.894 346.122L512.995 346.043L512.023 346.834L511.07 347.659L510.037 348.593L509.056 349.512L508.232 350.305L507.641 350.884L506.36 352.169L505.312 353.245L503.803 354.836L503 355.7L502.165 356.61L500.854 358.065L499.941 359.096C500.879 359.185 501.906 359.262 503.001 359.328L504.689 359.417L506.46 359.491L508.295 359.547L510.178 359.588L512.09 359.614C512.41 359.617 512.731 359.619 513.052 359.621L514.975 359.624C515.295 359.624 515.614 359.622 515.932 359.62L517.827 359.602C518.14 359.598 518.451 359.593 518.76 359.588L520.586 359.549C522.085 355.08 522.429 351.486 522.313 348.803L522.272 348.123L522.214 347.485C522.203 347.382 522.191 347.281 522.179 347.182L522.099 346.606L522.007 346.073C521.991 345.987 521.975 345.904 521.958 345.822L521.855 345.351L521.747 344.922L521.638 344.536L521.53 344.191L521.328 343.631L521.164 343.242L520.775 342.439L520.548 342.011L520.358 341.674L520.138 341.304L519.889 340.908L519.609 340.491L519.301 340.062C517.582 337.746 514.646 335.14 510.776 336.737Z" fill="#333333"/>
<path d="M480.158 381.952C482.195 379.222 484.221 376.561 486.238 373.967C488.337 371.282 490.456 368.704 492.599 366.198C492.726 366.043 492.853 365.888 492.976 365.766C495.074 363.324 497.158 360.985 499.261 358.752L495.487 348.174L495.032 348.595L494.08 349.464C492.305 351.118 490.443 352.898 488.526 354.81C487.446 355.887 486.352 356.997 485.24 358.14L482.992 360.467C482.612 360.862 482.231 361.26 481.847 361.662C479.744 363.895 477.587 366.258 475.42 368.69C474.041 370.263 472.659 371.855 471.272 373.481L469.672 375.366L474.488 389.752L476.392 387.144L480.158 381.952Z" fill="#333333"/>
<path d="M438.883 451.64L438.167 452.962L436.274 456.495C435.955 457.093 435.636 457.694 435.318 458.3L434.316 460.229C434.125 460.583 433.938 460.904 433.781 461.264L432.728 463.297L430.425 467.768C432.301 468.983 433.552 471.604 434.651 474.55C434.896 471.696 434.127 468.868 432.213 466.499C441.995 468.387 450.879 467.149 456.301 460.565C456.771 459.973 457.245 459.346 457.691 458.681C455.396 460.828 452.884 461.584 448.557 460.776L448.069 460.68C455.368 458.618 459.245 456.159 462.992 451.731C463.878 450.677 464.778 449.522 465.699 448.23C458.797 453.517 451.59 454.235 444.459 451.831L438.883 451.64Z" fill="#333333"/>
<path d="M442.152 441.701L444.182 438.134L447.539 432.268C449.171 429.444 450.838 426.626 452.544 423.778C454.25 420.93 455.989 418.088 457.729 415.245C459.513 412.339 461.326 409.472 463.173 406.61C464.981 403.778 466.857 400.955 468.694 398.161C469.366 397.146 470.032 396.165 470.737 395.154C471.893 393.444 473.083 391.739 474.273 390.034L474.454 389.747L469.701 375.405L469.433 375.739C469.385 375.795 469.334 375.85 469.281 375.9C467.333 378.26 465.347 380.649 463.418 383.116C461.451 385.612 459.512 388.147 457.598 390.755C455.987 392.955 454.411 395.16 452.829 397.4L451.898 398.76C449.988 401.578 448.19 404.342 446.582 406.996C444.749 409.999 443.107 412.89 441.626 415.632C440.664 417.44 439.747 419.185 438.907 420.872C438.21 422.301 437.542 423.77 436.879 425.204C435.337 428.598 433.965 432.017 432.73 435.456L437.57 449.915L438.512 448.199L440.438 444.746C440.761 444.166 441.084 443.582 441.405 442.994L442.152 441.701Z" fill="#333333"/>
<path d="M432.557 435.918C431.261 439.565 430.147 443.239 429.261 446.947L428.797 448.976C428.361 447.971 427.66 446.933 426.871 445.953L426.388 445.373C426.306 445.278 426.223 445.183 426.141 445.09L425.641 444.539L425.142 444.013L424.65 443.518L423.946 442.839L423.308 442.252L422.608 441.637L421.978 441.118C425.197 447.647 427.438 453.963 427.036 459.787C424.79 459.91 421.887 458.823 418.63 457.057C420.032 458.776 421.319 459.989 422.405 460.839L422.891 461.207C422.97 461.264 423.047 461.319 423.123 461.372L423.563 461.668L423.97 461.92L424.341 462.132L424.675 462.307L424.97 462.447L425.224 462.557C425.263 462.572 425.3 462.587 425.335 462.601C422.607 462.371 419.582 463.52 416.458 465.103L415.413 465.645L414.363 466.212C419.745 464.878 423.988 464.666 426.819 465.777C425.428 468.409 424.029 471.103 422.622 473.854L420.504 478.023C417.318 484.339 414.092 490.932 410.833 497.748L408.656 502.325C407.928 503.861 407.199 505.407 406.469 506.964C407.96 506.765 408.957 505.902 409.624 504.677L412.09 499.449L414.359 494.748L417.259 488.845L419.82 483.714L422.358 478.699L424.768 473.996L428.114 467.564L430.49 463.062L431.306 461.527L432.01 460.228L432.65 459.01L433.626 457.208L435.627 453.533C435.966 452.913 436.308 452.289 436.652 451.66L437.599 449.954L437.604 449.92L432.764 435.461C432.702 435.568 432.657 435.662 432.616 435.761L432.557 435.918Z" fill="#333333"/>
<path d="M475.409 391.071L474.654 392.178C474.148 392.94 473.627 393.699 473.109 394.468L470.626 398.213L468.853 400.875L468.404 401.565C467.73 402.597 467.054 403.647 466.371 404.713L464.298 407.959C462.922 410.124 461.537 412.355 460.122 414.665L459.054 416.414C457.359 419.193 455.609 422.104 453.849 425.083L451.823 428.542C450.802 430.291 449.767 432.073 448.726 433.904C448.108 434.983 447.488 436.078 446.863 437.187L443.783 442.682L442.839 444.393L440.922 447.881C440.279 449.057 439.631 450.246 438.981 451.445C438.937 451.508 438.893 451.571 438.883 451.64L444.459 451.831C444.362 451.782 444.26 451.767 444.129 451.713C450.825 451.86 460.268 448.233 466.781 442.993C469.78 440.579 472.612 437.653 475.357 434.122C477.413 431.5 479.377 428.551 481.363 425.222C483.073 422.34 484.79 419.181 486.479 415.739C484.864 416.302 483.041 416.627 481.073 416.756L480.021 416.81C479.787 416.822 479.556 416.819 479.313 416.82L478.94 416.825C485.418 415.374 489.934 411.407 493.548 406.229C491.786 407.084 488.952 408.13 485.713 408.386C485.289 408.428 484.836 408.431 484.383 408.435C484.315 408.425 484.244 408.43 484.164 408.428L484.037 408.419C486.28 407.843 488.231 407.119 489.973 406.157C490.224 406.031 490.461 405.888 490.694 405.739L491.042 405.513C491.579 405.174 492.087 404.796 492.595 404.418L493.543 403.652C494.261 403.027 494.956 402.328 495.592 401.551L495.999 401.08C496.063 401.001 496.125 400.921 496.184 400.837L496.697 400.113C496.779 399.996 496.858 399.88 496.933 399.764C497.897 398.382 498.712 397.112 499.4 395.957L499.687 395.469C500.059 394.827 500.388 394.249 500.677 393.699L501.016 393.053L501.529 392.013C501.634 391.797 501.731 391.591 501.816 391.395L501.966 391.046L502.221 390.415C502.296 390.22 502.361 390.041 502.415 389.879L502.49 389.649C502.337 389.743 502.169 389.834 501.987 389.913L501.704 390.021C499.704 390.842 496.385 391.399 493.76 391.501C493.725 391.496 493.691 391.491 493.652 391.52L493.128 391.523C493.036 391.526 492.943 391.532 492.849 391.541L492.995 391.493L475.478 390.837C475.492 390.979 475.448 391.042 475.409 391.071Z" fill="#333333"/>
<path d="M499.941 359.096C499.315 359.805 498.668 360.549 498.001 361.328L496.639 362.931L495.223 364.623L493.512 366.69C493.475 366.737 493.441 366.786 493.41 366.84C492.434 368.037 491.432 369.291 490.398 370.61L488.824 372.638C488.558 372.984 488.289 373.335 488.018 373.691L485.757 376.681L484.278 378.662C483.53 379.671 482.767 380.711 481.989 381.785L481.207 382.871C480.422 383.95 479.632 385.059 478.83 386.199L477.207 388.518L475.536 390.915L493.053 391.571C498.402 389.989 500.956 388.24 503.582 385.528C504.106 384.978 504.636 384.39 505.17 383.778L505.705 383.159C507.882 380.659 510.064 377.881 512.043 375.073C513.972 372.363 515.726 369.662 517.094 367.217C517.987 365.642 518.723 364.184 519.297 362.876C519.779 361.728 520.183 360.639 520.547 359.578L518.73 359.61L516.862 359.629L514.959 359.636L513.041 359.629C512.721 359.627 512.401 359.624 512.081 359.621L510.172 359.593L508.292 359.55C507.982 359.542 507.674 359.532 507.368 359.523L505.564 359.457C505.269 359.445 504.977 359.432 504.688 359.418L503 359.328C501.906 359.262 500.879 359.185 499.941 359.096Z" fill="#333333"/>
</svg>
