<svg id="svg_icon" width="800" height="800" viewBox="0 0 800 800" fill="none" xmlns="http://www.w3.org/2000/svg">
<path d="M746.433 200C740.867 190.333 733.167 181.9 724.7 177L430.833 7.33336C413.9 -2.4333 386.2 -2.4333 369.267 7.33336L75.3333 177C58.4 186.767 44.5667 210.767 44.5667 230.333V569.667C44.5667 579.467 48.0333 590.333 53.6 600C59.1667 609.667 66.8667 618.1 75.3333 622.967L369.2 792.667C386.133 802.433 413.833 802.433 430.767 792.667L724.633 622.967C733.1 618.1 740.8 609.667 746.367 600C751.933 590.333 755.4 579.467 755.4 569.667V230.333C755.467 220.533 752 209.667 746.433 200ZM400 636.967C269.333 636.967 163.033 530.667 163.033 400C163.033 269.333 269.333 163.033 400 163.033C441.569 163.109 482.391 174.081 518.397 194.856C554.402 215.631 584.331 245.483 605.2 281.433L502.667 340.8C492.238 322.797 477.268 307.846 459.252 297.44C441.236 287.035 420.805 281.538 400 281.5C334.667 281.5 281.533 334.667 281.533 400C281.533 465.333 334.667 518.5 400 518.5C420.8 518.455 441.225 512.96 459.239 502.561C477.252 492.162 492.226 477.223 502.667 459.233L605.233 518.567C584.356 554.518 554.421 584.369 518.41 605.143C482.4 625.918 441.573 636.89 400 636.967ZM636.967 413.167H610.633V439.5H584.3V413.167H557.967V386.833H584.3V360.5H610.633V386.833H636.967V413.167ZM735.7 413.167H709.367V439.5H683.033V413.167H656.733V386.833H683.033V360.5H709.367V386.833H735.7V413.167Z" fill="#333333"/>
</svg>
