<svg id="svg_icon" width="800" height="800" viewBox="0 0 800 800" fill="none" xmlns="http://www.w3.org/2000/svg">
<g clip-path="url(#clip0_0_1)">
<path d="M141.233 0.0333296C130.833 -0.400004 119.067 2.43333 113.633 15.2667C108.367 27.7333 104.2 54.8667 102.3 91.1333L143.067 110.833C142.4 86.2667 143.3 63.1667 145.6 41.9667C144.733 51.9333 143.733 73.9667 145.8 109.933C146.433 121.333 147.433 134.1 148.733 148.267C148.8 149.067 148.8 149.833 148.967 150.567C151.683 177.454 155.117 204.263 159.267 230.967C161.167 243.233 163.467 256.033 165.767 269.633L165.433 269.967C165.9 270.3 165.933 270.567 165.9 270.733L166.9 276.067C167.9 281.467 168.9 287 170 292.533L173.6 310.967L175.467 320.6C180.15 343.663 185.228 366.644 190.7 389.533C193.7 402.267 196.9 415.533 200.267 429.067C203.533 441.933 206.9 455.167 210.567 468.833C213.767 480.9 217.2 493.333 220.667 506.067C220.767 506.667 221.067 507.267 221.167 507.9C224.889 521.083 228.667 534.249 232.5 547.4L234.133 553.2C236.733 561.9 239.4 570.967 242.2 580.033C238.888 578.659 235.63 577.158 232.433 575.533L226.1 553.733C225.433 551.167 224.7 548.8 224.033 546.233L223.967 546.1L223.833 546.033C220.933 536.033 218.167 525.8 215.267 515.5C214.5 512.6 213.8 509.733 212.967 506.733L202.5 467.467C199.167 454.767 196.033 441.967 192.833 429C189.7 416 186.667 403 183.6 389.933C180.5 376.567 177.567 363.267 174.767 349.833C171.933 336.633 169.4 323.233 166.767 310.067C164.269 297.095 161.924 284.094 159.733 271.067C159.6 270.633 159.533 270.067 159.4 269.7L159.533 269.633C157.633 256.767 155.667 243.967 153.733 231.3C151.889 217.94 150.178 204.561 148.6 191.167C145.511 164.486 143.598 137.682 142.867 110.833L102.2 91.1667C102.067 93.6333 101.867 96.1667 101.767 98.8333C101.367 108.633 101.1 119 101 129.833C100.902 142.689 100.969 155.546 101.2 168.4C101.5 180.733 102.033 193.567 102.7 206.667C103.367 217.867 104.1 229.167 105.033 240.733L105.1 242.033L105.3 242.167C105.4 242.933 105.533 243.833 105.5 244.7C106.6 256.967 107.633 269.333 109.067 281.867C111.698 305.577 115.066 329.199 119.167 352.7C119.5 354.833 119.967 357.067 120.333 359.2C125.094 385.271 131.18 411.082 138.567 436.533C140.9 444.433 143.233 452 145.567 459.2C147.667 465.267 149.9 471.367 152.033 477.367C157.2 491.433 162.933 505.1 169.1 518.433L169.3 518.567C169.475 519.14 169.698 519.698 169.967 520.233C177.467 536.4 185.8 551.9 195.133 566.733C195.467 567.167 195.8 567.833 196.133 568.3C180.967 562.2 154.167 565.033 154.367 565.067C182.033 574.667 206.267 586.4 221.567 604.233C215.467 610.9 204.133 615.967 189.8 620.133C209.6 622.267 220.6 618.833 224.633 617.067C214.3 625.733 208.533 641.467 203.467 658.4C215.133 639.4 226.667 626.767 237.9 621.933C240.5 630.533 243.3 639.4 246.033 648.2C220.455 698.372 195.74 748.979 171.9 800C174.963 799.589 177.877 798.423 180.378 796.608C182.88 794.793 184.892 792.385 186.233 789.6C190.567 780.2 213.9 730.433 249.833 660.433C263.6 703.867 279.167 749.733 296.033 797.4C297.713 795.232 298.825 792.678 299.267 789.971C299.709 787.265 299.469 784.49 298.567 781.9C283.157 738.362 268.62 694.52 254.967 650.4C260.1 640.433 265.5 630 271.1 619.333C275.267 620.667 279.6 622.467 284.067 624.5C290.833 630.7 295.8 640.867 300.133 652.5C301.366 639.312 297.367 626.168 289 615.9C333.5 624.5 373.9 618.9 398.567 588.9C400.815 586.121 402.95 583.252 404.967 580.3C394.133 590.433 382.233 593.767 361.2 589.4C394.4 580.033 411.967 568.833 429.033 548.733C433.033 543.9 437.167 538.633 441.4 532.733C409.967 556.8 377.167 560.133 344.733 549.167L343.233 548.567C373.7 549.233 416.667 532.767 446.3 508.933C459.967 497.933 472.833 484.6 485.3 468.6C494.633 456.633 503.633 443.267 512.633 428.067C520.433 414.967 528.233 400.6 535.967 384.967C527.984 387.58 519.689 389.116 511.3 389.533L506.5 389.8C504.9 389.867 503.4 389.8 501.633 389.867C531.133 383.267 551.633 365.2 568.1 341.633C560.1 345.533 547.167 350.367 532.433 351.533C530.5 351.733 528.433 351.733 526.367 351.733C525.933 351.667 525.433 351.733 524.8 351.667C535 349.067 543.933 345.733 551.8 341.367C555.941 339.001 559.927 336.373 563.733 333.5C565.2 332.267 566.667 331.167 568.067 329.967C571.367 327.1 574.5 323.967 577.4 320.4C578.333 319.267 579.267 318.3 580.067 317.133C581.267 315.467 582.5 313.867 583.533 312.267C589.729 303.403 595.405 294.188 600.533 284.667C601.033 283.633 601.6 282.767 602.067 281.733C603.4 278.933 604.733 276.4 605.733 274.167C607.133 270.867 608.2 268.2 608.8 266.233C607.67 266.938 606.462 267.508 605.2 267.933C596.1 271.667 580.967 274.167 569 274.633C568.867 274.633 568.733 274.633 568.567 274.767H566.333C590.333 267.633 601.9 259.767 613.733 247.5C627.592 232.499 640.442 216.598 652.2 199.9C661 187.567 669.033 175.3 675.267 164.167C678.911 157.762 682.227 151.176 685.2 144.433C687.4 139.2 689.267 134.267 690.933 129.433C675.4 129.767 658.067 129.8 641.6 129.433C658.1 129.767 675.433 129.667 691.067 129.267C707.733 79.7667 693.167 53.8667 693.167 53.8667C693.167 53.8667 675.633 13.4667 646.5 25.5C632.3 31.3333 607.433 49.8333 577.067 77.5L594.2 125.833C611.915 106.792 630.879 88.9525 650.967 72.4333C642.4 79.7667 624.067 96.6333 597.133 127.233C588.6 136.9 579.233 148.033 569 160.467C568.433 161.133 567.833 161.733 567.433 162.467C548.276 186.268 529.758 210.576 511.9 235.367C503.633 246.7 495.3 258.833 486.4 271.633H485.867C485.933 272.3 485.733 272.567 485.533 272.7L482.167 277.767C478.7 282.933 475.067 288.1 471.567 293.433L459.833 311.233C457.8 314.233 455.7 317.267 453.633 320.467C447.5 329.867 441.4 339.567 435.033 349.567C418.802 375.32 402.934 401.3 387.433 427.5C372.171 453.324 357.27 479.36 342.733 505.6C342.333 506.167 342.067 506.933 341.6 507.5C334.13 521.063 326.708 534.652 319.333 548.267L316.1 554.3C310.433 564.9 304.567 575.7 298.767 586.933C298.767 587.067 298.6 587.2 298.567 587.367C297.7 588.967 296.9 590.467 296.167 592.067C292.267 599.467 288.9 606.2 281.167 621.067C278.807 618.767 276.203 616.732 273.4 615L284.9 593.333C286.467 590.367 288.1 587.433 289.667 584.333L291 581.767L309.2 548.4L313.533 540.633V540.433L313.5 540.233C319.133 529.9 325 519.567 330.833 508.9C332.533 506 334.233 503.133 335.933 500.067C343.4 486.9 351.067 473.6 358.733 460.167C381.581 420.707 405.309 381.764 429.9 343.367C438.133 330.5 446.667 317.7 455.033 304.967C458.1 300.367 461.1 295.9 464.333 291.3C469.621 283.48 474.955 275.691 480.333 267.933C480.567 267.533 480.967 267.133 481.2 266.7H481.4C490.067 254.833 498.633 242.933 507.167 231.2C516.433 218.767 525.633 206.7 534.833 194.867C553.554 170.954 573.318 147.876 594.067 125.7L576.9 77.5C574.9 79.4 572.7 81.3667 570.5 83.4333C561.947 91.396 553.523 99.497 545.233 107.733C535.4 117.533 525.333 127.933 514.833 138.9C496.158 158.834 478.018 179.264 460.433 200.167L459.433 201.267L459.5 201.533C458.933 202.2 458.4 203 457.7 203.667C448.833 214.433 439.767 225.3 431 236.5C414.276 257.663 398.212 279.34 382.833 301.5C381.4 303.5 380 305.7 378.6 307.7C361.716 332.477 346.107 358.099 331.833 384.467C327.5 392.7 323.3 400.633 319.5 408.3C316.3 414.8 313.267 421.467 310.233 428C303.233 443.433 296.967 459 291.367 474.633L291.433 474.833C291.088 475.451 290.798 476.098 290.567 476.767C286.967 486.867 283.8 497.033 280.9 507.233C276.233 513.033 270.833 518.067 264.8 522.567C263.394 520.825 261.937 519.124 260.433 517.467C275.171 495.358 284.574 470.128 287.9 443.767C289.651 427.269 289.472 410.623 287.367 394.167C285.833 380.833 283.167 366.833 279.433 351.7C276.2 338.6 272.2 324.7 267.333 310.1C264.3 316.267 260 322.333 254.7 328.267L251.833 331.4C250.867 332.467 249.833 333.4 248.767 334.533C263.233 312.067 264.967 287.967 260.7 262.933C257.017 273.289 251.482 282.889 244.367 291.267C243.267 292.533 241.967 293.833 240.7 295.133C240.367 295.367 240.067 295.733 239.6 296.067C244.4 288.067 247.933 280.5 250.2 272.8C250.739 271.205 251.185 269.58 251.533 267.933C252.056 265.451 252.478 262.949 252.8 260.433L253.4 255.567C253.708 251.638 253.686 247.691 253.333 243.767C253.233 242.433 253.2 241.233 253 240C252.667 238.167 252.467 236.5 252.1 234.867C250.5 225.416 248.352 216.067 245.667 206.867C245.333 205.933 245.167 205 244.8 204.067C243.9 201.433 243.2 199.1 242.4 197.1C241.527 194.725 240.525 192.4 239.4 190.133C239.142 191.286 238.751 192.405 238.233 193.467C234.833 201.467 226.9 212.467 219.667 220.133C219.567 220.233 219.433 220.3 219.433 220.467L218.1 221.9C228.7 202.567 231.1 190.367 230.933 175.3C230.345 157.258 228.563 139.274 225.6 121.467C223.672 109.072 221.091 96.7885 217.867 84.6667C216.179 78.3703 214.176 72.1625 211.867 66.0667C210.103 61.659 208.19 57.3121 206.133 53.0333C206.156 52.9889 206.178 52.9444 206.2 52.9C185.867 11.3667 160.667 4.13333 160.667 4.13333C160.667 4.13333 151.633 0.466663 141.233 0.0333296ZM253.9 526.133L254.967 528.867V528.933C252.967 530.033 251.1 531.167 249.033 532.167C248.633 532.3 248.233 532.567 247.733 532.767C249.924 530.663 251.994 528.438 253.933 526.1L253.9 526.133ZM233.8 580.333C238.133 584.867 242.133 588.4 245.6 591L247.933 598.567C245.163 598.97 242.424 599.561 239.733 600.333L238.733 597.067C237.933 594.267 237.133 591.4 236.2 588.5L235.5 586.067L233.8 580.333ZM242.467 609.5C245.482 609.436 248.498 609.548 251.5 609.833L253.833 617.467C256.553 616.984 259.333 616.939 262.067 617.333L251.2 638.233C248.255 628.666 245.344 619.088 242.467 609.5Z" fill="#333333"/>
</g>
<defs>
<clipPath id="clip0_0_1">
<rect width="800" height="800" fill="white"/>
</clipPath>
</defs>
</svg>
